<svg xmlns="http://www.w3.org/2000/svg" viewBox="0 0 1200 675" width="100%" height="100%">
  <rect width="1200" height="675" fill="#030712" rx="12" />
  
  <!-- Header Bar -->
  <rect x="0" y="0" width="1200" height="50" fill="#0f172a" rx="12" />
  <rect x="0" y="40" width="1200" height="10" fill="#0f172a" />
  <line x1="0" y1="50" x2="1200" y2="50" stroke="#1e293b" stroke-width="1" />
  
  <text x="20" y="31" fill="#f8fafc" font-family="system-ui, sans-serif" font-weight="700" font-size="15">🔒 traces-sm</text>
  <text x="135" y="31" fill="#94a3b8" font-family="system-ui, sans-serif" font-size="12">SGX Secrets &amp; Key Management Console</text>
  
  <rect x="580" y="14" width="130" height="24" rx="6" fill="#1e293b" />
  <text x="590" y="30" fill="#cbd5e1" font-family="monospace" font-size="11">Ubuntu 24.04 (GTK3)</text>
  
  <rect x="720" y="14" width="115" height="24" rx="6" fill="#064e3b" stroke="#059669" stroke-width="1" />
  <text x="730" y="30" fill="#34d399" font-family="monospace" font-weight="700" font-size="11">SGX HW_ACTIVE</text>
  
  <rect x="845" y="14" width="115" height="24" rx="6" fill="#1e1b4b" stroke="#4338ca" stroke-width="1" />
  <text x="855" y="30" fill="#818cf8" font-family="monospace" font-size="11">RA-TLS VERIFIED</text>
  
  <rect x="970" y="14" width="105" height="24" rx="6" fill="#312e81" stroke="#6366f1" stroke-width="1" />
  <text x="980" y="30" fill="#c7d2fe" font-family="system-ui, sans-serif" font-weight="600" font-size="11">✦ Traces AI</text>

  <!-- Sidebar -->
  <rect x="0" y="51" width="220" height="584" fill="#090d16" />
  <line x1="220" y1="51" x2="220" y2="635" stroke="#1e293b" stroke-width="1" />
  
  <text x="20" y="80" fill="#64748b" font-family="monospace" font-weight="700" font-size="10">KEYS &amp; SECRETS</text>
  
  <rect x="12" y="92" width="196" height="32" rx="6" fill="#312e81" stroke="#4338ca" stroke-width="1" />
  <text x="25" y="113" fill="#e0e7ff" font-family="system-ui, sans-serif" font-weight="600" font-size="12">• Dashboard</text>
  <text x="180" y="113" fill="#818cf8" font-family="monospace" font-size="10">⌘1</text>
  
  <text x="25" y="148" fill="#94a3b8" font-family="system-ui, sans-serif" font-size="12">• Key Lifecycle [8]</text>
  <text x="180" y="148" fill="#475569" font-family="monospace" font-size="10">⌘2</text>
  
  <text x="25" y="180" fill="#94a3b8" font-family="system-ui, sans-serif" font-size="12">• Vault [14]</text>
  <text x="180" y="180" fill="#475569" font-family="monospace" font-size="10">⌘3</text>
  
  <text x="20" y="215" fill="#64748b" font-family="monospace" font-weight="700" font-size="10">NETWORK</text>
  <text x="25" y="235" fill="#94a3b8" font-family="system-ui, sans-serif" font-size="12">• DKG Topology [3]</text>
  <text x="180" y="235" fill="#475569" font-family="monospace" font-size="10">⌘4</text>
  
  <text x="20" y="270" fill="#64748b" font-family="monospace" font-weight="700" font-size="10">CRYPTOGRAPHY</text>
  <text x="25" y="290" fill="#94a3b8" font-family="system-ui, sans-serif" font-size="12">• Entropy</text>
  <text x="25" y="320" fill="#94a3b8" font-family="system-ui, sans-serif" font-size="12">• ZKP Sandbox</text>

  <!-- Sidebar Bottom Status Card -->
  <rect x="12" y="570" width="196" height="50" rx="6" fill="#0f172a" stroke="#1e293b" stroke-width="1" />
  <text x="22" y="588" fill="#64748b" font-family="monospace" font-size="9">ENCLAVE DEVICE:</text>
  <text x="22" y="602" fill="#34d399" font-family="monospace" font-weight="700" font-size="10">/dev/sgx_enclave</text>
  <text x="22" y="614" fill="#94a3b8" font-family="monospace" font-size="9">EPC 21.2 MB / 64.0 MB</text>

  <!-- Main Content Area -->
  <text x="245" y="85" fill="#f8fafc" font-family="system-ui, sans-serif" font-weight="700" font-size="20">Executive Dashboard</text>
  <text x="245" y="105" fill="#94a3b8" font-family="system-ui, sans-serif" font-size="12">Enclave health, active key counts, cryptoperiod volume limits and throughput.</text>

  <!-- 4 Summary Cards -->
  <rect x="245" y="125" width="165" height="85" rx="10" fill="#0f172a" stroke="#1e293b" stroke-width="1" />
  <text x="260" y="145" fill="#94a3b8" font-family="system-ui, sans-serif" font-size="11">ACTIVE NIST KEYS</text>
  <text x="260" y="175" fill="#ffffff" font-family="system-ui, sans-serif" font-weight="700" font-size="26">8</text>
  <text x="260" y="195" fill="#818cf8" font-family="monospace" font-size="9">RSA · ECDSA · ML-KEM</text>

  <rect x="420" y="125" width="165" height="85" rx="10" fill="#0f172a" stroke="#1e293b" stroke-width="1" />
  <text x="435" y="145" fill="#94a3b8" font-family="system-ui, sans-serif" font-size="11">SEALED SECRETS</text>
  <text x="435" y="175" fill="#ffffff" font-family="system-ui, sans-serif" font-weight="700" font-size="26">14</text>
  <text x="435" y="195" fill="#34d399" font-family="monospace" font-size="9">AES-256-GCM Envelope</text>

  <rect x="595" y="125" width="165" height="85" rx="10" fill="#0f172a" stroke="#1e293b" stroke-width="1" />
  <text x="610" y="145" fill="#94a3b8" font-family="system-ui, sans-serif" font-size="11">DKG PEER QUORUM</text>
  <text x="610" y="175" fill="#ffffff" font-family="system-ui, sans-serif" font-weight="700" font-size="26">3</text>
  <text x="610" y="195" fill="#c084fc" font-family="monospace" font-size="9">2-of-3 RA-TLS Connected</text>

  <rect x="770" y="125" width="165" height="85" rx="10" fill="#0f172a" stroke="#1e293b" stroke-width="1" />
  <text x="785" y="145" fill="#94a3b8" font-family="system-ui, sans-serif" font-size="11">SP 800-90B DRBG</text>
  <text x="785" y="172" fill="#34d399" font-family="system-ui, sans-serif" font-weight="700" font-size="16">✓ HEALTHY</text>
  <text x="785" y="195" fill="#94a3b8" font-family="monospace" font-size="9">APT &amp; RCT Passed</text>

  <!-- Enclave EPC & Cryptoperiod Telemetry -->
  <rect x="245" y="225" width="690" height="110" rx="10" fill="#0f172a" stroke="#1e293b" stroke-width="1" />
  <text x="260" y="248" fill="#e2e8f0" font-family="system-ui, sans-serif" font-weight="600" font-size="13">Enclave EPC Memory &amp; Cryptoperiod Telemetry</text>

  <text x="260" y="275" fill="#94a3b8" font-family="monospace" font-size="11">EPC Memory: 21.2 MB / 64.0 MB (33.1%)</text>
  <rect x="260" y="282" width="660" height="8" rx="4" fill="#1e293b" />
  <rect x="260" y="282" width="218" height="8" rx="4" fill="#6366f1" />

  <text x="260" y="310" fill="#94a3b8" font-family="monospace" font-size="11">Cryptoperiod Volume: 1.2 GB / 4.2 GB (28.5% of max 2^32 bytes limit)</text>
  <rect x="260" y="317" width="660" height="8" rx="4" fill="#1e293b" />
  <rect x="260" y="317" width="188" height="8" rx="4" fill="#10b981" />

  <!-- Throughput Graph Box -->
  <rect x="245" y="350" width="440" height="270" rx="10" fill="#0f172a" stroke="#1e293b" stroke-width="1" />
  <text x="260" y="375" fill="#e2e8f0" font-family="system-ui, sans-serif" font-weight="600" font-size="13">Cryptographic Throughput (Ops/sec)</text>
  
  <!-- Graph bars -->
  <rect x="290" y="520" width="35" height="60" fill="#4338ca" rx="4" />
  <rect x="345" y="470" width="35" height="110" fill="#4f46e5" rx="4" />
  <rect x="400" y="420" width="35" height="160" fill="#6366f1" rx="4" />
  <rect x="455" y="460" width="35" height="120" fill="#4f46e5" rx="4" />
  <rect x="510" y="490" width="35" height="90" fill="#4338ca" rx="4" />
  <rect x="565" y="530" width="35" height="50" fill="#312e81" rx="4" />
  <line x1="280" y1="580" x2="640" y2="580" stroke="#334155" stroke-width="1" />

  <!-- Right Side Panel: Traces AI Assistant -->
  <rect x="945" y="51" width="255" height="584" fill="#090d16" />
  <line x1="945" y1="51" x2="945" y2="635" stroke="#1e293b" stroke-width="1" />
  
  <rect x="945" y="51" width="255" height="40" fill="#0f172a" />
  <text x="960" y="75" fill="#818cf8" font-family="system-ui, sans-serif" font-weight="700" font-size="13">✦ Traces AI</text>
  <rect x="1055" y="62" width="95" height="18" rx="4" fill="#312e81" />
  <text x="1061" y="74" fill="#c7d2fe" font-family="monospace" font-size="9">Anthropic Ready</text>

  <!-- Anthropic Key Box -->
  <rect x="955" y="98" width="235" height="45" rx="6" fill="#0f172a" stroke="#1e293b" stroke-width="1" />
  <text x="963" y="113" fill="#64748b" font-family="monospace" font-size="9">ANTHROPIC API KEY (CLAUDE):</text>
  <text x="963" y="132" fill="#818cf8" font-family="monospace" font-size="11">sk-ant-api03-••••••••</text>

  <!-- Chat Log Box -->
  <rect x="955" y="150" width="235" height="400" rx="6" fill="#030712" stroke="#1e293b" stroke-width="1" />
  <rect x="963" y="160" width="219" height="85" rx="8" fill="#1e1b4b" stroke="#3730a3" stroke-width="1" />
  <text x="971" y="176" fill="#818cf8" font-family="monospace" font-weight="700" font-size="9">TRACES AI</text>
  <text x="971" y="192" fill="#c7d2fe" font-family="system-ui, sans-serif" font-size="11">Enclave is HW_ACTIVE and all 6</text>
  <text x="971" y="206" fill="#c7d2fe" font-family="system-ui, sans-serif" font-size="11">security policy rules are enforcing.</text>
  <text x="971" y="220" fill="#c7d2fe" font-family="system-ui, sans-serif" font-size="11">Ask about a key or DCAP quote.</text>

  <rect x="963" y="255" width="219" height="50" rx="8" fill="#1e293b" />
  <text x="971" y="271" fill="#94a3b8" font-family="monospace" font-weight="700" font-size="9">YOU</text>
  <text x="971" y="287" fill="#f1f5f9" font-family="system-ui, sans-serif" font-size="11">Why is key k-104 deactivated?</text>

  <rect x="963" y="315" width="219" height="85" rx="8" fill="#1e1b4b" stroke="#3730a3" stroke-width="1" />
  <text x="971" y="331" fill="#818cf8" font-family="monospace" font-weight="700" font-size="9">TRACES AI (CLAUDE 3.5 SONNET)</text>
  <text x="971" y="347" fill="#c7d2fe" font-family="system-ui, sans-serif" font-size="11">Key k-104 reached its SP 800-57</text>
  <text x="971" y="361" fill="#c7d2fe" font-family="system-ui, sans-serif" font-size="11">cryptoperiod limit (4.2 GB). Signing</text>
  <text x="971" y="375" fill="#c7d2fe" font-family="system-ui, sans-serif" font-size="11">is disabled; decryption permitted.</text>

  <!-- Quick Shortcut Buttons -->
  <rect x="955" y="555" width="70" height="22" rx="4" fill="#1e293b" />
  <text x="961" y="570" fill="#cbd5e1" font-family="monospace" font-size="9">Why k-104?</text>
  <rect x="1030" y="555" width="70" height="22" rx="4" fill="#1e293b" />
  <text x="1036" y="570" fill="#cbd5e1" font-family="monospace" font-size="9">APT cutoff</text>
  <rect x="1105" y="555" width="85" height="22" rx="4" fill="#1e293b" />
  <text x="1111" y="570" fill="#cbd5e1" font-family="monospace" font-size="9">Quorum health</text>

  <!-- Input Box -->
  <rect x="955" y="585" width="180" height="35" rx="6" fill="#0f172a" stroke="#1e293b" stroke-width="1" />
  <text x="965" y="607" fill="#64748b" font-family="system-ui, sans-serif" font-size="11">Ask about keys, policy...</text>
  <rect x="1140" y="585" width="50" height="35" rx="6" fill="#4f46e5" />
  <text x="1151" y="607" fill="#ffffff" font-family="system-ui, sans-serif" font-weight="600" font-size="11">Send</text>

  <!-- Console Footer Bar -->
  <rect x="0" y="635" width="1200" height="40" fill="#090d16" />
  <line x1="0" y1="635" x2="1200" y2="635" stroke="#1e293b" stroke-width="1" />
  <text x="20" y="660" fill="#64748b" font-family="monospace" font-size="11">traces-sm v0.1.0-native  |  NIST SP 800-57 / 800-88 / 800-90B Compliant  |  Intel SGX EDP  |  RA-TLS mTLS Active</text>
</svg>
